#!OML:ASF F:\VICON\USERDATA\INSTALL\rory3\rory3.ASF
:FULLY-SPECIFIED
:DEGREES
121
root 1.07349 17.315 -16.369 13.5264 0.519611 -0.0748695
lowerback 17.5621 -0.540357 0.208773
upperback 2.13362 -0.394157 3.3474
thorax -7.53184 -0.14614 3.57717
lowerneck -20.4918 -4.25485 -9.10787
upperneck 17.3845 -4.10535 4.73607
head 9.12947 -2.01007 2.55117
rclavicle -2.22639e-014 4.13472e-014
rhumerus -23.178 -0.473147 -85.3133
rradius 44.8187
rwrist 2.95421
rhand -8.5572 8.51138
rfingers 7.12502
rthumb 17.3726 -20.7322
lclavicle -2.22639e-014 4.13472e-014
lhumerus -23.6411 -2.65812 93.0035
lradius 38.9764
lwrist -3.79857
lhand -17.7323 23.8292
lfingers 7.12502
lthumb 8.52865 53.637
rfemur -33.3917 0.389593 19.6276
rtibia 39.6655
rfoot -15.2931 -5.86252
rtoes 0.00549766
lfemur -34.6147 1.38165 -19.5174
ltibia 39.6794
lfoot -15.686 -1.57718
ltoes 0.517501
122
root 1.08321 17.299 -16.384 13.836 0.571719 0.0513595
lowerback 17.6392 -0.486517 0.269334
upperback 2.25114 -0.319668 3.27003
thorax -7.45201 -0.114756 3.44015
lowerneck -20.936 -4.34282 -8.97403
upperneck 17.2906 -4.21436 4.7045
head 9.17882 -2.04844 2.49783
rclavicle 3.97569e-015 -2.62396e-014
rhumerus -22.7674 -1.17003 -85.214
rradius 44.7553
rwrist 3.14244
rhand -9.13435 8.87077
rfingers 7.12502
rthumb 16.8171 -20.421
lclavicle 3.97569e-015 -2.62396e-014
lhumerus -23.2292 -3.17249 92.9558
lradius 38.6699
lwrist -4.09053
lhand -18.0065 23.0488
lfingers 7.12502
lthumb 8.26402 52.8671
rfemur -34.0689 0.169882 19.4826
rtibia 40.1977
rfoot -15.4598 -5.76303
rtoes -0.0444158
lfemur -35.2493 1.49708 -19.7445
ltibia 40.0789
lfoot -15.812 -1.77337
ltoes 0.645525
123
root 1.09069 17.2733 -16.3978 14.043 0.696324 0.181056
lowerback 17.8468 -0.483084 0.282181
upperback 2.32891 -0.312679 3.23623
thorax -7.48197 -0.112303 3.39767
lowerneck -21.0948 -4.35885 -8.95525
upperneck 17.0457 -4.22033 4.70471
head 9.12136 -2.04534 2.49091
rclavicle -1.07344e-014 1.11319e-014
rhumerus -22.4135 -1.53844 -85.1251
rradius 44.6697
rwrist 3.23671
rhand -9.67825 9.17061
rfingers 7.12502
rthumb 16.2935 -20.1648
lclavicle -1.07344e-014 1.11319e-014
lhumerus -22.9181 -3.56751 92.9297
lradius 38.434
lwrist -4.33254
lhand -18.3784 22.8306
lfingers 7.12502
lthumb 7.90512 52.6628
rfemur -34.6369 0.000619572 19.3457
rtibia 40.7359
rfoot -15.5743 -5.7343
rtoes 0.236315
lfemur -35.7513 1.54777 -19.9412
ltibia 40.4383
lfoot -15.8964 -1.97013
ltoes 0.902945
124
root 1.09632 17.252 -16.4115 14.2046 0.722834 0.26793
lowerback 17.9973 -0.507967 0.233474
upperback 2.36108 -0.351874 3.23991
thorax -7.52677 -0.129419 3.44182
lowerneck -20.8729 -4.299 -9.09386
upperneck 16.8221 -4.12534 4.76989
head 9.00295 -2.00358 2.55046
rclavicle -3.97569e-015 1.35174e-014
rhumerus -22.2088 -1.7022 -85.0749
rradius 44.6344
rwrist 3.30877
rhand -9.87409 9.34512
rfingers 7.12502
rthumb 16.1049 -20.0057
lclavicle -3.97569e-015 1.35174e-014
lhumerus -22.8538 -3.59177 92.8708
lradius 38.3666
lwrist -4.53453
lhand -18.2262 23.2111
lfingers 7.12502
lthumb 8.05199 53.0377
rfemur -35.1736 -0.0377204 19.2343
rtibia 41.2427
rfoot -15.5996 -5.7555
rtoes 0.192498
lfemur -36.1793 1.64603 -20.0916
ltibia 40.7799
lfoot -15.9394 -2.1088
ltoes 0.927883
